# xmcd
#
# Track frame offsets: 
#        150
#        13307
#        27017
#        38927
#        54717
#        65025
#        94032
#        104610
#        124747
#        142665
#
# Disc length: 2078 seconds
#
# Revision: 2
# Processed by: cddbd v1.5.2PL0 Copyright (c) Steve Scherf et al.
# Submitted via: ExactAudioCopy v0.99pb4
#
DISCID=88081c0a
DTITLE=Various Artist - Soul Sensations
DYEAR=1900
DGENRE=Soul
TTITLE0=Sam and Dave - Soul Man
TTITLE1=The Chi Lites - Oh Girl
TTITLE2=Ike and Tina Turner - Bold Soul Sister
TTITLE3=James Brown - I Got The Feeling
TTITLE4=Major Lance - Um, Um, Um, Um, Um, Um
TTITLE5=Ray Charles - What'd I Say
TTITLE6=Etta James - Tell Mama
TTITLE7=Ben E King - Supernatural Thing
TTITLE8=Ak Jarreau - Lean On Me
TTITLE9=Percy Sledge - When A Man Loves A Woman
EXTD=
EXTT0=
EXTT1=
EXTT2=
EXTT3=
EXTT4=
EXTT5=
EXTT6=
EXTT7=
EXTT8=
EXTT9=
PLAYORDER=
